<svg viewBox="0 0 180 180" xmlns="http://www.w3.org/2000/svg">
  <!-- White background for Apple devices -->
  <rect width="180" height="180" fill="white"/>
  
  <!-- Define gradient -->
  <defs>
    <linearGradient id="appleGradient" x1="0%" y1="0%" x2="100%" y2="100%">
      <stop offset="0%" style="stop-color:#0066ff;stop-opacity:1" />
      <stop offset="100%" style="stop-color:#00ccff;stop-opacity:1" />
    </linearGradient>
  </defs>
  
  <!-- Diamond Matrix Icon centered and scaled - matching actual logo -->
  <g transform="translate(36, 36)">
    <!-- 3x3 grid of diamonds forming F shape -->
    <!-- Row 1 -->
    <rect x="0" y="0" width="36" height="36" fill="url(#appleGradient)" transform="rotate(45 18 18)" opacity="0.5"/>
    <rect x="36" y="0" width="36" height="36" fill="url(#appleGradient)" transform="rotate(45 54 18)" opacity="1"/>
    <rect x="72" y="0" width="36" height="36" fill="url(#appleGradient)" transform="rotate(45 90 18)" opacity="0.5"/>
    
    <!-- Row 2 -->
    <rect x="0" y="36" width="36" height="36" fill="url(#appleGradient)" transform="rotate(45 18 54)" opacity="1"/>
    <rect x="36" y="36" width="36" height="36" fill="url(#appleGradient)" transform="rotate(45 54 54)" opacity="1"/>
    <rect x="72" y="36" width="36" height="36" fill="url(#appleGradient)" transform="rotate(45 90 54)" opacity="1"/>
    
    <!-- Row 3 -->
    <rect x="0" y="72" width="36" height="36" fill="url(#appleGradient)" transform="rotate(45 18 90)" opacity="0.5"/>
    <rect x="36" y="72" width="36" height="36" fill="url(#appleGradient)" transform="rotate(45 54 90)" opacity="1"/>
    <rect x="72" y="72" width="36" height="36" fill="url(#appleGradient)" transform="rotate(45 90 90)" opacity="0.5"/>
  </g>
</svg>