<svg viewBox="0 0 64 64" xmlns="http://www.w3.org/2000/svg">
  <!-- Define gradient -->
  <defs>
    <linearGradient id="faviconGradient" x1="0%" y1="0%" x2="100%" y2="100%">
      <stop offset="0%" style="stop-color:#0066ff;stop-opacity:1" />
      <stop offset="100%" style="stop-color:#00ccff;stop-opacity:1" />
    </linearGradient>
  </defs>
  
  <!-- Diamond Matrix Icon centered - matching the actual logo -->
  <g transform="translate(10, 10)">
    <!-- 3x3 grid of diamonds forming F shape -->
    <!-- Row 1 -->
    <rect x="0" y="0" width="14" height="14" fill="url(#faviconGradient)" transform="rotate(45 7 7)" opacity="0.5"/>
    <rect x="15" y="0" width="14" height="14" fill="url(#faviconGradient)" transform="rotate(45 22 7)" opacity="1"/>
    <rect x="30" y="0" width="14" height="14" fill="url(#faviconGradient)" transform="rotate(45 37 7)" opacity="0.5"/>
    
    <!-- Row 2 -->
    <rect x="0" y="15" width="14" height="14" fill="url(#faviconGradient)" transform="rotate(45 7 22)" opacity="1"/>
    <rect x="15" y="15" width="14" height="14" fill="url(#faviconGradient)" transform="rotate(45 22 22)" opacity="1"/>
    <rect x="30" y="15" width="14" height="14" fill="url(#faviconGradient)" transform="rotate(45 37 22)" opacity="1"/>
    
    <!-- Row 3 -->
    <rect x="0" y="30" width="14" height="14" fill="url(#faviconGradient)" transform="rotate(45 7 37)" opacity="0.5"/>
    <rect x="15" y="30" width="14" height="14" fill="url(#faviconGradient)" transform="rotate(45 22 37)" opacity="1"/>
    <rect x="30" y="30" width="14" height="14" fill="url(#faviconGradient)" transform="rotate(45 37 37)" opacity="0.5"/>
  </g>
</svg>