<svg viewBox="0 0 16 16" xmlns="http://www.w3.org/2000/svg">
  <defs>
    <linearGradient id="grad16" x1="0%" y1="0%" x2="100%" y2="100%">
      <stop offset="0%" style="stop-color:#0066ff;stop-opacity:1" />
      <stop offset="100%" style="stop-color:#00ccff;stop-opacity:1" />
    </linearGradient>
  </defs>
  <!-- Simplified diamond F for small size -->
  <g transform="translate(2, 2)">
    <rect x="0" y="0" width="3.5" height="3.5" fill="url(#grad16)" transform="rotate(45 1.75 1.75)" opacity="0.5"/>
    <rect x="5" y="0" width="3.5" height="3.5" fill="url(#grad16)" transform="rotate(45 6.75 1.75)" opacity="1"/>
    <rect x="10" y="0" width="3.5" height="3.5" fill="url(#grad16)" transform="rotate(45 11.75 1.75)" opacity="0.5"/>
    
    <rect x="0" y="5" width="3.5" height="3.5" fill="url(#grad16)" transform="rotate(45 1.75 6.75)" opacity="1"/>
    <rect x="5" y="5" width="3.5" height="3.5" fill="url(#grad16)" transform="rotate(45 6.75 6.75)" opacity="1"/>
    <rect x="10" y="5" width="3.5" height="3.5" fill="url(#grad16)" transform="rotate(45 11.75 6.75)" opacity="1"/>
    
    <rect x="0" y="10" width="3.5" height="3.5" fill="url(#grad16)" transform="rotate(45 1.75 11.75)" opacity="0.5"/>
    <rect x="5" y="10" width="3.5" height="3.5" fill="url(#grad16)" transform="rotate(45 6.75 11.75)" opacity="1"/>
    <rect x="10" y="10" width="3.5" height="3.5" fill="url(#grad16)" transform="rotate(45 11.75 11.75)" opacity="0.5"/>
  </g>
</svg>